<?xml version="1.0" encoding="UTF-8" standalone="no"?>
<!DOCTYPE svg PUBLIC "-//W3C//DTD SVG 1.1//EN" "http://www.w3.org/Graphics/SVG/1.1/DTD/svg11.dtd">
<svg width="100%" height="100%" viewBox="0 0 9167 9167" version="1.1" xmlns="http://www.w3.org/2000/svg" xmlns:xlink="http://www.w3.org/1999/xlink" xml:space="preserve" xmlns:serif="http://www.serif.com/" style="fill-rule:evenodd;clip-rule:evenodd;stroke-linejoin:round;stroke-miterlimit:2;">
    <g transform="matrix(4.16667,0,0,4.16667,0,0)">
        <g transform="matrix(2.39262,0,0,2.39262,-2777.37,-314.819)">
            <path d="M1621.28,1044.71C1559.96,1044.71 1500.46,1032.69 1444.43,1008.99C1390.32,986.108 1341.74,953.353 1300.03,911.639C1258.31,869.924 1225.56,821.34 1202.67,767.237C1178.97,711.209 1166.96,651.708 1166.96,590.388C1166.96,529.068 1178.97,469.567 1202.67,413.538C1225.56,359.435 1258.31,310.852 1300.03,269.137C1341.74,227.422 1390.32,194.668 1444.43,171.784C1500.46,148.086 1559.96,136.07 1621.28,136.07C1682.6,136.07 1742.1,148.086 1798.13,171.784C1852.23,194.668 1900.81,227.422 1942.53,269.137C1984.24,310.852 2017,359.435 2039.88,413.538C2063.58,469.567 2075.59,529.068 2075.59,590.388C2075.59,651.708 2063.58,711.209 2039.88,767.237C2017,821.34 1984.24,869.924 1942.53,911.639C1900.81,953.353 1852.23,986.108 1798.13,1008.99C1742.1,1032.69 1682.6,1044.71 1621.28,1044.71Z" style="fill:rgb(65,178,99);fill-rule:nonzero;"/>
        </g>
        <g transform="matrix(2.39262,0,0,2.39262,-2777.37,-314.819)">
            <path d="M1383.45,649.518C1407.96,689.352 1450.3,752.165 1483.05,793.43C1498.5,812.903 1525.93,814.706 1543.96,797.592C1647.66,699.168 1743.91,575 1859.16,403.071C1865.84,393.1 1862.48,379.541 1851.91,373.866C1843.83,369.531 1833.84,371.151 1827.55,377.816C1699.69,513.19 1634.13,577.533 1506.91,683.374C1506.91,683.374 1466.8,657.897 1418.36,618.791C1407.97,610.402 1392.69,612.292 1384.67,622.971C1378.85,630.729 1378.37,641.254 1383.45,649.518Z" style="fill:white;fill-rule:nonzero;"/>
        </g>
    </g>
</svg>
