<svg xmlns="http://www.w3.org/2000/svg" xmlns:xlink="http://www.w3.org/1999/xlink" width="1366" zoomAndPan="magnify" viewBox="0 0 1024.5 576" height="768" preserveAspectRatio="xMidYMid meet" version="1.0"><path fill="#343341" d="M 510.320312 3.039062 C 316.394531 3.039062 137.921875 91.449219 20.675781 245.558594 C 2.390625 269.5625 2.390625 303.082031 20.660156 327.054688 C 137.921875 481.195312 316.394531 569.605469 510.320312 569.605469 C 704.242188 569.605469 882.714844 481.195312 999.960938 327.085938 C 1018.246094 303.082031 1018.246094 269.59375 999.976562 245.589844 C 882.714844 91.449219 704.242188 3.039062 510.320312 3.039062 Z M 946.566406 286.421875 C 842.101562 423.738281 683.089844 502.496094 510.320312 502.496094 C 337.546875 502.496094 178.539062 423.738281 74.070312 286.222656 C 178.539062 148.90625 337.546875 70.148438 510.320312 70.148438 C 683.089844 70.148438 842.101562 148.90625 946.566406 286.222656 C 946.566406 286.242188 946.566406 286.402344 946.566406 286.421875 Z M 946.566406 286.421875 " fill-opacity="1" fill-rule="nonzero"/><path fill="#343341" d="M 510.320312 89.890625 C 402.003906 89.890625 313.886719 178.007812 313.886719 286.320312 C 313.886719 394.636719 402.003906 482.753906 510.320312 482.753906 C 618.632812 482.753906 706.75 394.636719 706.75 286.320312 C 706.75 178.007812 618.636719 89.890625 510.320312 89.890625 Z M 510.320312 415.644531 C 439.015625 415.644531 380.996094 357.625 380.996094 286.320312 C 380.996094 215.019531 439.015625 157 510.320312 157 C 581.621094 157 639.640625 215.019531 639.640625 286.320312 C 639.640625 357.625 581.621094 415.644531 510.320312 415.644531 Z M 510.320312 415.644531 " fill-opacity="1" fill-rule="nonzero"/></svg>